#N canvas 718 145 701 679 10;
#X obj 41 107 random 59;
#X obj 41 70 bng 15 250 50 0 empty empty empty 17 7 0 10 -262144 -1
-1;
#X obj 41 140 + 1;
#X floatatom 41 181 5 0 0 0 - - -, f 5;
#X obj 150 69 bng 15 250 50 0 empty empty empty 17 7 0 10 -262144 -1
-1;
#X obj 150 139 + 1;
#X floatatom 150 180 5 0 0 0 - - -, f 5;
#X obj 150 106 urn 59;
#X connect 0 0 2 0;
#X connect 1 0 0 0;
#X connect 2 0 3 0;
#X connect 4 0 7 0;
#X connect 5 0 6 0;
#X connect 7 0 5 0;
