#N canvas 215 62 1211 738 10;
#X obj 25 94 metro 400;
#X obj 25 59 tgl 15 0 empty empty empty 17 7 0 10 -262144 -1 -1 0 1
;
#X obj 25 235 noteout 1;
#X obj 25 197 makenote 127 500;
#X obj 25 128 random 127;
#X floatatom 25 164 5 0 0 0 - - -, f 5;
#X text 142 58 toogle (interruptor);
#X text 141 94 metro - manda bangs regulares (neste caso 500 ms);
#X text 137 123 gera números aleatórios entre 0-126 \, ou seja \,
um total de 127 hipóteses;
#X text 138 161 serve para visualizar os números geradores pelo random
;
#X text 137 195 gera informação midi (nota \, velocidade \, duração)
;
#X text 138 235 envia informação midi para o sintetizador;
#X obj 554 97 metro 400;
#X obj 554 62 tgl 15 0 empty empty empty 17 7 0 10 -262144 -1 -1 0
1;
#X obj 554 268 noteout 1;
#X obj 554 230 makenote 127 500;
#X floatatom 554 197 5 0 0 0 - - -, f 5;
#X text 19 23 1 Gerador de notas aleatório;
#X text 549 26 2 Gerador notas aleatório. Ambito de uma oitava;
#X text 670 97 comment;
#X text 666 126 gera números aleatórios entre 0-11 \, ou seja \,
um total de 12 hipóteses;
#X obj 554 162 + 48;
#X text 666 198 comment;
#X text 667 238 comment;
#X text 667 164 adiciona um offset \, ou seja \, gera notas entre 48
e (48+11);
#X obj 554 131 random 12;
#X obj 29 512 metro 400;
#X obj 29 435 tgl 15 0 empty empty empty 17 7 0 10 -262144 -1 -1 0
1;
#X obj 29 683 noteout 1;
#X obj 29 645 makenote 127 500;
#X floatatom 29 612 5 0 0 0 - - -, f 5;
#X obj 29 577 + 48;
#X obj 29 546 random 12;
#X text 24 399 3 Gerador notas aleatório com ritmo aleatório.;
#X text 142 579 comment;
#X text 141 613 comment;
#X text 142 653 comment;
#X text 141 541 comment;
#X text 145 512 comment;
#X obj 63 451 random 1000;
#X obj 63 481 + 100;
#X text 152 445 Modula o timing do metro entre 100 e (999+100) \, a
cada bang que o metro produz \, ou seja \, a cada bang que o metro
produz é gerado um valor entre 100 e 1099 que por sua vez modifica
o valor desse mesmo metro;
#X obj 555 513 metro 400;
#X obj 555 436 tgl 15 0 empty empty empty 17 7 0 10 -262144 -1 -1 0
1;
#X obj 555 684 noteout 1;
#X obj 555 646 makenote 127 500;
#X floatatom 555 613 5 0 0 0 - - -, f 5;
#X obj 555 578 + 48;
#X obj 555 547 random 12;
#X obj 589 452 random 1000;
#X obj 589 482 + 100;
#X obj 650 547 random 117;
#X obj 650 578 + 10;
#X obj 743 546 random 5000;
#X obj 743 577 + 100;
#X text 550 400 4 Gerador notas aleatório com ritmo \, velocidade
e duração aleatórias.;
#X text 856 665 SINTETIZADORES VIRTUAIS (para download) freestyle WIN:
http://coolsoft.altervista.org/en/virtualmidisynth MAC: http://notahat.com/simplesynth/
;
#X text 855 624 INTRODUÇÃO À MÚSICA ELECTROACÚSTICA | 2016 Filipe
Lopes;
#X connect 0 0 4 0;
#X connect 1 0 0 0;
#X connect 3 0 2 0;
#X connect 3 1 2 1;
#X connect 4 0 5 0;
#X connect 5 0 3 0;
#X connect 12 0 25 0;
#X connect 13 0 12 0;
#X connect 15 0 14 0;
#X connect 15 1 14 1;
#X connect 16 0 15 0;
#X connect 21 0 16 0;
#X connect 25 0 21 0;
#X connect 26 0 32 0;
#X connect 26 0 39 0;
#X connect 27 0 26 0;
#X connect 29 0 28 0;
#X connect 29 1 28 1;
#X connect 30 0 29 0;
#X connect 31 0 30 0;
#X connect 32 0 31 0;
#X connect 39 0 40 0;
#X connect 40 0 26 1;
#X connect 42 0 48 0;
#X connect 42 0 49 0;
#X connect 42 0 51 0;
#X connect 42 0 53 0;
#X connect 43 0 42 0;
#X connect 45 0 44 0;
#X connect 45 1 44 1;
#X connect 46 0 45 0;
#X connect 47 0 46 0;
#X connect 48 0 47 0;
#X connect 49 0 50 0;
#X connect 50 0 42 1;
#X connect 51 0 52 0;
#X connect 52 0 45 1;
#X connect 53 0 54 0;
#X connect 54 0 45 2;
