#N canvas 20 40 1105 461 10;
#X obj 47 44 tgl 15 0 empty empty empty 17 7 0 10 -262144 -1 -1 0 1
;
#X obj 47 86 metro 500;
#X obj 47 115 counter 0 0 9;
#X obj 47 170 select 0 1 2 3 4 5 6 7 8 9;
#X floatatom 47 145 5 0 0 0 - - -, f 5;
#X obj 47 388 makenote 120 120;
#X obj 47 260 unpack 0 0;
#X floatatom 47 287 5 0 0 0 - - -, f 5;
#X floatatom 104 288 5 0 0 0 - - -, f 5;
#X obj 47 428 noteout 1;
#X obj 153 260 unpack 0 0;
#X floatatom 153 287 5 0 0 0 - - -, f 5;
#X floatatom 210 288 5 0 0 0 - - -, f 5;
#X obj 261 262 unpack 0 0;
#X floatatom 261 289 5 0 0 0 - - -, f 5;
#X floatatom 318 290 5 0 0 0 - - -, f 5;
#X obj 367 262 unpack 0 0;
#X floatatom 367 289 5 0 0 0 - - -, f 5;
#X floatatom 424 290 5 0 0 0 - - -, f 5;
#X obj 476 264 unpack 0 0;
#X floatatom 476 291 5 0 0 0 - - -, f 5;
#X floatatom 533 292 5 0 0 0 - - -, f 5;
#X obj 582 264 unpack 0 0;
#X floatatom 582 291 5 0 0 0 - - -, f 5;
#X floatatom 639 292 5 0 0 0 - - -, f 5;
#X obj 690 266 unpack 0 0;
#X floatatom 690 293 5 0 0 0 - - -, f 5;
#X floatatom 747 294 5 0 0 0 - - -, f 5;
#X obj 796 266 unpack 0 0;
#X floatatom 796 293 5 0 0 0 - - -, f 5;
#X floatatom 853 294 5 0 0 0 - - -, f 5;
#X obj 902 268 unpack 0 0;
#X floatatom 902 295 5 0 0 0 - - -, f 5;
#X floatatom 959 296 5 0 0 0 - - -, f 5;
#X obj 1008 268 unpack 0 0;
#X floatatom 1008 295 5 0 0 0 - - -, f 5;
#X floatatom 1065 296 5 0 0 0 - - -, f 5;
#X msg 153 235 90 80;
#X msg 476 239 90 80;
#X msg 690 241 90 80;
#X msg 902 243 90 80;
#X msg 1008 243 90 80;
#X msg 47 235 70 127;
#X msg 582 238 70 127;
#X msg 796 241 70 127;
#X msg 261 237 70 127;
#X msg 367 237 90 80;
#X floatatom 98 44 5 0 0 0 - - -, f 5;
#X text 296 37 Jhaptal is the most common 10 beat tal in northern India.
It is composed of four vibhags of 2 \, 3 \, 2 \, and 3 matras. These
vibhags are denoted by clap \, clap \, wave \, and clap respectively.
Jhaptal shows up in a variety of classical and semiclassical settings.
It may be found in the kheyal \, tarana \, bhajan \, and Rabindra sangeet.
http://chandrakantha.com/tala_taal/jhuptal_jhuptaal/jhaptal.html;
#X text 756 423 INTRODUÇÃO À MÚSICA ELECTROACÚSTICA | 2016 Filipe
Lopes;
#X connect 0 0 1 0;
#X connect 1 0 2 0;
#X connect 2 0 4 0;
#X connect 3 0 42 0;
#X connect 3 1 37 0;
#X connect 3 2 45 0;
#X connect 3 3 46 0;
#X connect 3 4 38 0;
#X connect 3 5 43 0;
#X connect 3 6 39 0;
#X connect 3 7 44 0;
#X connect 3 8 40 0;
#X connect 3 9 41 0;
#X connect 4 0 3 0;
#X connect 5 0 9 0;
#X connect 5 1 9 1;
#X connect 6 0 7 0;
#X connect 6 1 8 0;
#X connect 7 0 5 0;
#X connect 8 0 5 1;
#X connect 10 0 11 0;
#X connect 10 1 12 0;
#X connect 11 0 5 0;
#X connect 12 0 5 1;
#X connect 13 0 14 0;
#X connect 13 1 15 0;
#X connect 14 0 5 0;
#X connect 15 0 5 1;
#X connect 16 0 17 0;
#X connect 16 1 18 0;
#X connect 17 0 5 0;
#X connect 18 0 5 1;
#X connect 19 0 20 0;
#X connect 19 1 21 0;
#X connect 20 0 5 0;
#X connect 21 0 5 1;
#X connect 22 0 23 0;
#X connect 22 1 24 0;
#X connect 23 0 5 0;
#X connect 24 0 5 1;
#X connect 25 0 26 0;
#X connect 25 1 27 0;
#X connect 26 0 5 0;
#X connect 27 0 5 1;
#X connect 28 0 29 0;
#X connect 28 1 30 0;
#X connect 29 0 5 0;
#X connect 30 0 5 1;
#X connect 31 0 32 0;
#X connect 31 1 33 0;
#X connect 32 0 5 0;
#X connect 33 0 5 1;
#X connect 34 0 35 0;
#X connect 34 1 36 0;
#X connect 35 0 5 0;
#X connect 36 0 5 1;
#X connect 37 0 10 0;
#X connect 38 0 19 0;
#X connect 39 0 25 0;
#X connect 40 0 31 0;
#X connect 41 0 34 0;
#X connect 42 0 6 0;
#X connect 43 0 22 0;
#X connect 44 0 28 0;
#X connect 45 0 13 0;
#X connect 46 0 16 0;
#X connect 47 0 1 1;
