#N canvas 113 47 680 391 10;
#X obj 103 206 bng 15 250 50 0 empty empty empty 17 7 0 10 -262144
-1 -1;
#X obj 124 206 bng 15 250 50 0 empty empty empty 17 7 0 10 -262144
-1 -1;
#X obj 147 205 bng 15 250 50 0 empty empty empty 17 7 0 10 -262144
-1 -1;
#X obj 168 205 bng 15 250 50 0 empty empty empty 17 7 0 10 -262144
-1 -1;
#X obj 187 205 bng 15 250 50 0 empty empty empty 17 7 0 10 -262144
-1 -1;
#X obj 210 204 bng 15 250 50 0 empty empty empty 17 7 0 10 -262144
-1 -1;
#X obj 103 126 random 7;
#X obj 103 183 select 0 1 2 3 4 5;
#X floatatom 103 160 5 0 0 0 - - -, f 5;
#X obj 107 98 bng 15 250 50 0 empty empty empty 17 7 0 10 -262144 -1
-1;
#X obj 108 76 metro 500;
#X obj 107 49 tgl 12 0 empty empty empty 17 7 0 10 -262144 -1 -1 0
1;
#X floatatom 164 56 5 0 0 0 - - -, f 5;
#X msg 103 241 50;
#X msg 133 240 70;
#X msg 162 241 66;
#X msg 192 240 30;
#X msg 223 242 43;
#X msg 253 241 90;
#X obj 104 316 noteout 1;
#X obj 104 291 makenote 120 800;
#X connect 0 0 13 0;
#X connect 1 0 14 0;
#X connect 2 0 15 0;
#X connect 3 0 16 0;
#X connect 4 0 17 0;
#X connect 5 0 18 0;
#X connect 6 0 8 0;
#X connect 7 0 0 0;
#X connect 7 1 1 0;
#X connect 7 2 2 0;
#X connect 7 3 3 0;
#X connect 7 4 4 0;
#X connect 7 5 5 0;
#X connect 8 0 7 0;
#X connect 9 0 6 0;
#X connect 10 0 9 0;
#X connect 11 0 10 0;
#X connect 12 0 10 1;
#X connect 13 0 20 0;
#X connect 14 0 20 0;
#X connect 15 0 20 0;
#X connect 16 0 20 0;
#X connect 17 0 20 0;
#X connect 18 0 20 0;
#X connect 20 0 19 0;
#X connect 20 1 19 1;
