#N canvas 130 99 1046 569 10;
#X obj 27 46 cycle~ 220;
#X obj 19 238 dac~;
#X obj 102 91 *~ 0.2;
#X obj 102 116 +~ 0.8;
#X obj 27 143 *~;
#X floatatom 102 46 5 0 0 0 - - -;
#X obj 27 196 *~ 0;
#X obj 48 169 tgl 15 0 empty empty empty 17 7 0 10 -262144 -1 -1 0
1;
#X obj 356 146 cycle~ 220;
#X obj 348 243 dac~;
#X floatatom 356 51 5 0 0 0 - - -;
#X obj 356 201 *~ 0;
#X obj 377 174 tgl 15 0 empty empty empty 17 7 0 10 -262144 -1 -1 0
1;
#X text 354 18 vibrato;
#X text 25 13 tremolo;
#X obj 356 120 +~ 220;
#X obj 356 96 *~ 5;
#X obj 102 68 cycle~ 7;
#X obj 356 73 cycle~ 7;
#X floatatom 418 73 5 0 0 0 - - -;
#X obj 19 316 cycle~ 220;
#X obj 11 508 dac~;
#X obj 94 361 *~ 0.2;
#X obj 19 413 *~;
#X floatatom 94 316 5 0 0 0 - - -;
#X obj 19 466 *~ 0;
#X obj 40 439 tgl 15 0 empty empty empty 17 7 0 10 -262144 -1 -1 0
1;
#X obj 348 416 cycle~ 220;
#X obj 340 513 dac~;
#X floatatom 348 321 5 0 0 0 - - -;
#X obj 348 471 *~ 0;
#X obj 369 444 tgl 15 0 empty empty empty 17 7 0 10 -262144 -1 -1 0
1;
#X obj 348 390 +~ 220;
#X obj 348 366 *~ 5;
#X obj 94 338 cycle~ 7;
#X obj 348 343 cycle~ 7;
#X floatatom 410 343 5 0 0 0 - - -;
#X text 17 283 modulacao de amplitude;
#X text 346 288 modulacao de frequencia;
#X floatatom 416 374 5 0 0 0 - - -;
#X text 387 319 frequencia da moduladora;
#X text 446 342 amplitude da modulacao;
#X text 455 373 frequencia da portadora;
#X obj 670 385 cycle~ 220;
#X obj 662 482 dac~;
#X floatatom 670 283 5 0 0 0 - - -;
#X obj 670 440 *~ 0;
#X obj 691 413 tgl 15 0 empty empty empty 17 7 0 10 -262144 -1 -1 0
1;
#X obj 670 359 +~ 220;
#X obj 670 335 *~ 5;
#X obj 670 312 cycle~ 7;
#X floatatom 779 327 5 0 0 0 - - -;
#X floatatom 736 152 5 0 0 0 - - -;
#X text 775 151 frequencia da portadora;
#X obj 670 254 * 0.5;
#X floatatom 816 196 5 0 0 0 - - -;
#X obj 662 229 bng 15 250 50 0 empty empty empty 17 7 0 10 -262144
-1 -1;
#X text 859 194 harmonicity ratio;
#X obj 781 296 * 0.5;
#X floatatom 858 245 5 0 0 0 - - -;
#X obj 792 270 bng 15 250 50 0 empty empty empty 17 7 0 10 -262144
-1 -1;
#X text 901 243 modulation index;
#X text 653 96 implementacao dos parametros mais vulgares da modulacao
de frequencia;
#X connect 0 0 4 0;
#X connect 2 0 3 0;
#X connect 3 0 4 1;
#X connect 4 0 6 0;
#X connect 5 0 17 0;
#X connect 6 0 1 0;
#X connect 6 0 1 1;
#X connect 7 0 6 1;
#X connect 8 0 11 0;
#X connect 10 0 18 0;
#X connect 11 0 9 0;
#X connect 11 0 9 1;
#X connect 12 0 11 1;
#X connect 15 0 8 0;
#X connect 16 0 15 0;
#X connect 17 0 2 0;
#X connect 18 0 16 0;
#X connect 19 0 16 1;
#X connect 20 0 23 0;
#X connect 22 0 23 1;
#X connect 23 0 25 0;
#X connect 24 0 34 0;
#X connect 25 0 21 0;
#X connect 25 0 21 1;
#X connect 26 0 25 1;
#X connect 27 0 30 0;
#X connect 29 0 35 0;
#X connect 30 0 28 0;
#X connect 30 0 28 1;
#X connect 31 0 30 1;
#X connect 32 0 27 0;
#X connect 33 0 32 0;
#X connect 34 0 22 0;
#X connect 35 0 33 0;
#X connect 36 0 33 1;
#X connect 39 0 32 1;
#X connect 43 0 46 0;
#X connect 45 0 50 0;
#X connect 46 0 44 0;
#X connect 46 0 44 1;
#X connect 47 0 46 1;
#X connect 48 0 43 0;
#X connect 49 0 48 0;
#X connect 50 0 49 0;
#X connect 51 0 49 1;
#X connect 52 0 48 1;
#X connect 52 0 54 0;
#X connect 52 0 58 0;
#X connect 54 0 45 0;
#X connect 55 0 54 1;
#X connect 55 0 56 0;
#X connect 56 0 54 0;
#X connect 58 0 51 0;
#X connect 59 0 58 1;
#X connect 59 0 60 0;
#X connect 60 0 58 0;
