#N canvas 573 77 557 462 10;
#X obj 154 62 soundfiler;
#X obj 38 32 table som;
#X msg 154 30 read -resize anton.aif som;
#X obj 43 372 *~ 0.7;
#X obj 42 413 dac~;
#X obj 39 317 line~;
#X msg 39 178 0 \, 44100 1000;
#X obj 154 94 print;
#X obj 206 96 / 44.1;
#X floatatom 206 127 5 0 0 0 - - -, f 5;
#X text 295 125 tamanho do ficheiro em ms;
#X msg 71 211 0 \, 101939 4622;
#X msg 92 246 0 \, 101939 1000;
#X obj 41 344 tabread4~ som;
#X msg 110 281 101939 \, 0 11555;
#X text 136 170 de 0 a 44100 samples (Samplig Rate= 44100 / segundo)
em 1000ms (= 1 segundo);
#X connect 0 0 7 0;
#X connect 0 0 8 0;
#X connect 2 0 0 0;
#X connect 3 0 4 0;
#X connect 3 0 4 1;
#X connect 5 0 13 0;
#X connect 6 0 5 0;
#X connect 8 0 9 0;
#X connect 11 0 5 0;
#X connect 12 0 5 0;
#X connect 13 0 3 0;
#X connect 14 0 5 0;
