#N canvas 521 52 901 688 10;
#X obj 68 124 expr 440*pow((pow(2 \, (1./12))) \, $i1-49);
#X floatatom 68 161 5 0 0 0 - - -, f 5;
#X obj 155 495 line~;
#X obj 309 392 delay 100;
#X obj 288 393 bng 15 250 50 0 empty empty empty 17 7 0 10 -262144
-1 -1;
#X obj 289 426 bng 15 250 50 0 empty empty empty 17 7 0 10 -262144
-1 -1;
#X obj 157 242 trigger bang;
#X obj 158 274 bng 15 250 50 0 empty empty empty 17 7 0 10 -262144
-1 -1;
#X floatatom 231 322 5 0 0 0 - - -, f 5;
#X msg 155 459 \$1 \, \$2 \$3;
#X msg 310 452 \$1 \, \$2 \$3;
#X floatatom 396 392 5 0 0 0 - - -, f 5;
#X text 432 390 release time;
#X text 409 339 sustain time;
#X text 270 331 attack time;
#X obj 155 403 pack 0 0.5 20;
#X obj 308 425 pack 0.5 0 2000;
#X obj 314 367 +;
#X floatatom 373 344 5 0 0 0 - - -, f 5;
#X obj 63 641 dac~ 1 2;
#X obj 57 596 *~ 0.01;
#X obj 60 562 *~;
#X connect 0 0 1 0;
#X connect 1 0 21 0;
#X connect 1 0 6 0;
#X connect 2 0 21 1;
#X connect 3 0 5 0;
#X connect 3 0 16 0;
#X connect 4 0 3 0;
#X connect 6 0 7 0;
#X connect 7 0 8 0;
#X connect 7 0 15 0;
#X connect 8 0 15 2;
#X connect 8 0 17 1;
#X connect 9 0 2 0;
#X connect 9 0 4 0;
#X connect 10 0 2 0;
#X connect 11 0 16 2;
#X connect 15 0 9 0;
#X connect 16 0 10 0;
#X connect 17 0 3 0;
#X connect 18 0 17 0;
#X connect 20 0 19 0;
#X connect 20 0 19 1;
#X connect 21 0 20 0;
