#N canvas 110 160 1021 550 10;
#X obj 143 502 dac~ 1 2;
#X obj 145 178 sig~ 440;
#X obj 222 177 osc~ 3;
#X obj 146 254 +~;
#X floatatom 259 203 5 0 0 0 - - -, f 5;
#X obj 222 221 *~;
#X floatatom 222 148 5 0 0 0 - - -, f 5;
#X floatatom 145 157 5 0 0 0 - - -, f 5;
#X obj 379 366 line~;
#X obj 533 263 delay 100;
#X obj 512 264 bng 15 250 50 0 empty empty empty 17 7 0 10 -262144
-1 -1;
#X obj 513 297 bng 15 250 50 0 empty empty empty 17 7 0 10 -262144
-1 -1;
#X obj 147 11 notein;
#X obj 146 111 mtof;
#X obj 381 113 trigger bang;
#X obj 382 145 bng 15 250 50 0 empty empty empty 17 7 0 10 -262144
-1 -1;
#X floatatom 455 193 5 0 0 0 - - -, f 5;
#X msg 379 330 \$1 \, \$2 \$3;
#X msg 534 323 \$1 \, \$2 \$3;
#X floatatom 620 263 5 0 0 0 - - -, f 5;
#X text 656 261 release time;
#X text 633 210 sustain time;
#X text 494 202 attack time;
#X obj 379 274 pack 0 0.5 20;
#X obj 532 296 pack 0.5 0 2000;
#X obj 308 503 writesf~;
#X msg 477 444 stop;
#X floatatom 381 71 5 0 0 0 - - -, f 5;
#X msg 425 443 start;
#X obj 146 71 stripnote;
#X obj 131 95 bng 8 250 50 0 empty empty empty 17 7 0 10 -262144 -1
-1;
#X obj 538 238 +;
#X floatatom 597 215 5 0 0 0 - - -, f 5;
#X obj 144 431 *~;
#X msg 308 443 open minhaJam.wav;
#X obj 145 287 osc~;
#X text 180 290 oscilador;
#X text 277 179 modulador;
#X text 81 179 portador;
#X text 419 74 teste frequência;
#X text 199 5 entrada MDI do controlador MIDI (mensagem de nota) VERIFICAR
ENTRADAS E SAIDAS MIDI NO PURE DATA (ir à tab media);
#X text 382 489 criar um ficheiro áudio. Começa a "gravar" a partir
do momento em que se carrega "start". Pára de gravar quando se carrega
em "stop".;
#X connect 1 0 3 0;
#X connect 2 0 5 0;
#X connect 3 0 35 0;
#X connect 4 0 5 1;
#X connect 5 0 3 1;
#X connect 6 0 2 0;
#X connect 7 0 1 0;
#X connect 8 0 33 1;
#X connect 9 0 11 0;
#X connect 9 0 24 0;
#X connect 10 0 9 0;
#X connect 12 0 29 0;
#X connect 12 1 29 1;
#X connect 13 0 7 0;
#X connect 14 0 15 0;
#X connect 15 0 16 0;
#X connect 15 0 23 0;
#X connect 16 0 23 2;
#X connect 16 0 31 1;
#X connect 17 0 8 0;
#X connect 17 0 10 0;
#X connect 18 0 8 0;
#X connect 19 0 24 2;
#X connect 23 0 17 0;
#X connect 24 0 18 0;
#X connect 26 0 25 0;
#X connect 27 0 13 0;
#X connect 27 0 14 0;
#X connect 28 0 25 0;
#X connect 29 0 13 0;
#X connect 29 0 14 0;
#X connect 29 0 30 0;
#X connect 31 0 9 0;
#X connect 32 0 31 0;
#X connect 33 0 0 0;
#X connect 33 0 0 1;
#X connect 33 0 25 0;
#X connect 34 0 25 0;
#X connect 35 0 33 0;
