#N canvas 447 48 718 585 10;
#X obj 133 36 key;
#X obj 132 196 mtof;
#X floatatom 135 152 5 0 0 0 - - -, f 5;
#X obj 137 543 dac~ 1 2;
#X floatatom 81 71 5 0 0 0 - - -, f 5;
#X obj 131 69 select 107 105 43 112 97;
#X msg 224 111 50;
#X msg 132 109 90;
#X msg 176 110 70;
#X msg 263 112 51;
#X msg 300 113 54;
#X obj 137 503 *~;
#X obj 297 442 line~;
#X obj 451 339 delay 100;
#X obj 430 340 bng 15 250 50 0 empty empty empty 17 7 0 10 -262144
-1 -1;
#X obj 431 373 bng 15 250 50 0 empty empty empty 17 7 0 10 -262144
-1 -1;
#X obj 299 189 trigger bang;
#X obj 300 221 bng 15 250 50 0 empty empty empty 17 7 0 10 -262144
-1 -1;
#X floatatom 373 269 5 0 0 0 - - -, f 5;
#X msg 297 406 \$1 \, \$2 \$3;
#X msg 452 399 \$1 \, \$2 \$3;
#X floatatom 538 339 5 0 0 0 - - -, f 5;
#X text 574 337 release time;
#X text 551 286 sustain time;
#X text 412 278 attack time;
#X obj 297 350 pack 0 0.5 20;
#X obj 450 372 pack 0.5 0 2000;
#X obj 456 314 +;
#X floatatom 515 291 5 0 0 0 - - -, f 5;
#X obj 132 252 phasor~;
#X text 184 251 oscilador;
#X text 90 214 conversao MIDI para frequencia;
#X text 162 37 acede às teclas do computador (e também Makey-Makey)
;
#X connect 0 0 4 0;
#X connect 0 0 5 0;
#X connect 1 0 29 0;
#X connect 2 0 1 0;
#X connect 2 0 16 0;
#X connect 5 0 7 0;
#X connect 5 1 8 0;
#X connect 5 2 6 0;
#X connect 5 3 9 0;
#X connect 5 4 10 0;
#X connect 6 0 2 0;
#X connect 7 0 2 0;
#X connect 8 0 2 0;
#X connect 9 0 2 0;
#X connect 10 0 2 0;
#X connect 11 0 3 0;
#X connect 11 0 3 1;
#X connect 12 0 11 1;
#X connect 13 0 15 0;
#X connect 13 0 26 0;
#X connect 14 0 13 0;
#X connect 16 0 17 0;
#X connect 17 0 18 0;
#X connect 17 0 25 0;
#X connect 18 0 25 2;
#X connect 18 0 27 1;
#X connect 19 0 12 0;
#X connect 19 0 14 0;
#X connect 20 0 12 0;
#X connect 21 0 26 2;
#X connect 25 0 19 0;
#X connect 26 0 20 0;
#X connect 27 0 13 0;
#X connect 28 0 27 0;
#X connect 29 0 11 0;
