#N canvas 0 22 807 390 10;
#X obj 187 102 *~;
#X obj 226 101 *~;
#X obj 186 76 readsf~ 2;
#X obj 185 14 openpanel;
#X symbolatom 186 35 10 0 0 0 - - -, f 10;
#X obj 185 4 bng 8 250 50 0 empty empty empty 17 7 0 10 -262144 -1
-1;
#X msg 186 54 open \$1 \, start;
#X floatatom 267 98 5 0 0 0 - - -, f 5;
#X obj 75 163 dac~ 1 2;
#X obj 186 165 fiddle~ 1024 1 20 16;
#X obj 304 198 route 1 2 3 4 5 6 7 8 9 10 11 12 13 14 15 16;
#X obj 50 276 noteout 1;
#N canvas 0 22 890 779 minhaDeCa 0;
#X obj 62 100 unpack;
#X obj 60 136 ftom;
#X obj 104 152 * 127;
#X floatatom 60 195 5 0 0 0 - - -, f 5;
#X floatatom 99 196 5 0 0 0 - - -, f 5;
#X obj 53 229 makenote 127 100;
#X obj 60 63 inlet;
#X obj 62 258 outlet;
#X obj 125 262 outlet;
#X connect 0 0 1 0;
#X connect 0 1 2 0;
#X connect 1 0 3 0;
#X connect 2 0 4 0;
#X connect 3 0 5 0;
#X connect 4 0 5 1;
#X connect 5 0 7 0;
#X connect 5 1 8 0;
#X connect 6 0 0 0;
#X restore 50 242 pd minhaDeCa;
#N canvas 0 22 890 779 minhaDeCa 0;
#X obj 62 100 unpack;
#X obj 60 136 ftom;
#X obj 104 152 * 127;
#X floatatom 60 195 5 0 0 0 - - -, f 5;
#X floatatom 99 196 5 0 0 0 - - -, f 5;
#X obj 53 229 makenote 127 100;
#X obj 60 63 inlet;
#X obj 62 258 outlet;
#X obj 125 262 outlet;
#X connect 0 0 1 0;
#X connect 0 1 2 0;
#X connect 1 0 3 0;
#X connect 2 0 4 0;
#X connect 3 0 5 0;
#X connect 4 0 5 1;
#X connect 5 0 7 0;
#X connect 5 1 8 0;
#X connect 6 0 0 0;
#X restore 141 241 pd minhaDeCa;
#N canvas 0 22 890 779 minhaDeCa 0;
#X obj 62 100 unpack;
#X obj 60 136 ftom;
#X obj 104 152 * 127;
#X floatatom 60 195 5 0 0 0 - - -, f 5;
#X floatatom 99 196 5 0 0 0 - - -, f 5;
#X obj 53 229 makenote 127 100;
#X obj 60 63 inlet;
#X obj 62 258 outlet;
#X obj 125 262 outlet;
#X connect 0 0 1 0;
#X connect 0 1 2 0;
#X connect 1 0 3 0;
#X connect 2 0 4 0;
#X connect 3 0 5 0;
#X connect 4 0 5 1;
#X connect 5 0 7 0;
#X connect 5 1 8 0;
#X connect 6 0 0 0;
#X restore 232 240 pd minhaDeCa;
#N canvas 0 22 890 779 minhaDeCa 0;
#X obj 62 100 unpack;
#X obj 60 136 ftom;
#X obj 104 152 * 127;
#X floatatom 60 195 5 0 0 0 - - -, f 5;
#X floatatom 99 196 5 0 0 0 - - -, f 5;
#X obj 53 229 makenote 127 100;
#X obj 60 63 inlet;
#X obj 62 258 outlet;
#X obj 125 262 outlet;
#X connect 0 0 1 0;
#X connect 0 1 2 0;
#X connect 1 0 3 0;
#X connect 2 0 4 0;
#X connect 3 0 5 0;
#X connect 4 0 5 1;
#X connect 5 0 7 0;
#X connect 5 1 8 0;
#X connect 6 0 0 0;
#X restore 324 240 pd minhaDeCa;
#N canvas 0 22 890 779 minhaDeCa 0;
#X obj 62 100 unpack;
#X obj 60 136 ftom;
#X obj 104 152 * 127;
#X floatatom 60 195 5 0 0 0 - - -, f 5;
#X floatatom 99 196 5 0 0 0 - - -, f 5;
#X obj 53 229 makenote 127 100;
#X obj 60 63 inlet;
#X obj 62 258 outlet;
#X obj 125 262 outlet;
#X connect 0 0 1 0;
#X connect 0 1 2 0;
#X connect 1 0 3 0;
#X connect 2 0 4 0;
#X connect 3 0 5 0;
#X connect 4 0 5 1;
#X connect 5 0 7 0;
#X connect 5 1 8 0;
#X connect 6 0 0 0;
#X restore 417 242 pd minhaDeCa;
#N canvas 0 22 890 779 minhaDeCa 0;
#X obj 62 100 unpack;
#X obj 60 136 ftom;
#X obj 104 152 * 127;
#X floatatom 60 195 5 0 0 0 - - -, f 5;
#X floatatom 99 196 5 0 0 0 - - -, f 5;
#X obj 53 229 makenote 127 100;
#X obj 60 63 inlet;
#X obj 62 258 outlet;
#X obj 125 262 outlet;
#X connect 0 0 1 0;
#X connect 0 1 2 0;
#X connect 1 0 3 0;
#X connect 2 0 4 0;
#X connect 3 0 5 0;
#X connect 4 0 5 1;
#X connect 5 0 7 0;
#X connect 5 1 8 0;
#X connect 6 0 0 0;
#X restore 508 241 pd minhaDeCa;
#N canvas 0 22 890 779 minhaDeCa 0;
#X obj 62 100 unpack;
#X obj 60 136 ftom;
#X obj 104 152 * 127;
#X floatatom 60 195 5 0 0 0 - - -, f 5;
#X floatatom 99 196 5 0 0 0 - - -, f 5;
#X obj 53 229 makenote 127 100;
#X obj 60 63 inlet;
#X obj 62 258 outlet;
#X obj 125 262 outlet;
#X connect 0 0 1 0;
#X connect 0 1 2 0;
#X connect 1 0 3 0;
#X connect 2 0 4 0;
#X connect 3 0 5 0;
#X connect 4 0 5 1;
#X connect 5 0 7 0;
#X connect 5 1 8 0;
#X connect 6 0 0 0;
#X restore 599 240 pd minhaDeCa;
#N canvas 0 22 890 779 minhaDeCa 0;
#X obj 62 100 unpack;
#X obj 60 136 ftom;
#X obj 104 152 * 127;
#X floatatom 60 195 5 0 0 0 - - -, f 5;
#X floatatom 99 196 5 0 0 0 - - -, f 5;
#X obj 53 229 makenote 127 100;
#X obj 60 63 inlet;
#X obj 62 258 outlet;
#X obj 125 262 outlet;
#X connect 0 0 1 0;
#X connect 0 1 2 0;
#X connect 1 0 3 0;
#X connect 2 0 4 0;
#X connect 3 0 5 0;
#X connect 4 0 5 1;
#X connect 5 0 7 0;
#X connect 5 1 8 0;
#X connect 6 0 0 0;
#X restore 691 240 pd minhaDeCa;
#N canvas 0 22 890 779 minhaDeCa 0;
#X obj 62 100 unpack;
#X obj 60 136 ftom;
#X obj 104 152 * 127;
#X floatatom 60 195 5 0 0 0 - - -, f 5;
#X floatatom 99 196 5 0 0 0 - - -, f 5;
#X obj 53 229 makenote 127 100;
#X obj 60 63 inlet;
#X obj 62 258 outlet;
#X obj 125 262 outlet;
#X connect 0 0 1 0;
#X connect 0 1 2 0;
#X connect 1 0 3 0;
#X connect 2 0 4 0;
#X connect 3 0 5 0;
#X connect 4 0 5 1;
#X connect 5 0 7 0;
#X connect 5 1 8 0;
#X connect 6 0 0 0;
#X restore 76 318 pd minhaDeCa;
#N canvas 0 22 890 779 minhaDeCa 0;
#X obj 62 100 unpack;
#X obj 60 136 ftom;
#X obj 104 152 * 127;
#X floatatom 60 195 5 0 0 0 - - -, f 5;
#X floatatom 99 196 5 0 0 0 - - -, f 5;
#X obj 53 229 makenote 127 100;
#X obj 60 63 inlet;
#X obj 62 258 outlet;
#X obj 125 262 outlet;
#X connect 0 0 1 0;
#X connect 0 1 2 0;
#X connect 1 0 3 0;
#X connect 2 0 4 0;
#X connect 3 0 5 0;
#X connect 4 0 5 1;
#X connect 5 0 7 0;
#X connect 5 1 8 0;
#X connect 6 0 0 0;
#X restore 167 318 pd minhaDeCa;
#N canvas 0 22 890 779 minhaDeCa 0;
#X obj 62 100 unpack;
#X obj 60 136 ftom;
#X obj 104 152 * 127;
#X floatatom 60 195 5 0 0 0 - - -, f 5;
#X floatatom 99 196 5 0 0 0 - - -, f 5;
#X obj 53 229 makenote 127 100;
#X obj 60 63 inlet;
#X obj 62 258 outlet;
#X obj 125 262 outlet;
#X connect 0 0 1 0;
#X connect 0 1 2 0;
#X connect 1 0 3 0;
#X connect 2 0 4 0;
#X connect 3 0 5 0;
#X connect 4 0 5 1;
#X connect 5 0 7 0;
#X connect 5 1 8 0;
#X connect 6 0 0 0;
#X restore 258 317 pd minhaDeCa;
#N canvas 0 22 890 779 minhaDeCa 0;
#X obj 62 100 unpack;
#X obj 60 136 ftom;
#X obj 104 152 * 127;
#X floatatom 60 195 5 0 0 0 - - -, f 5;
#X floatatom 99 196 5 0 0 0 - - -, f 5;
#X obj 53 229 makenote 127 100;
#X obj 60 63 inlet;
#X obj 62 258 outlet;
#X obj 125 262 outlet;
#X connect 0 0 1 0;
#X connect 0 1 2 0;
#X connect 1 0 3 0;
#X connect 2 0 4 0;
#X connect 3 0 5 0;
#X connect 4 0 5 1;
#X connect 5 0 7 0;
#X connect 5 1 8 0;
#X connect 6 0 0 0;
#X restore 350 316 pd minhaDeCa;
#N canvas 0 22 890 779 minhaDeCa 0;
#X obj 62 100 unpack;
#X obj 60 136 ftom;
#X obj 104 152 * 127;
#X floatatom 60 195 5 0 0 0 - - -, f 5;
#X floatatom 99 196 5 0 0 0 - - -, f 5;
#X obj 53 229 makenote 127 100;
#X obj 60 63 inlet;
#X obj 62 258 outlet;
#X obj 125 262 outlet;
#X connect 0 0 1 0;
#X connect 0 1 2 0;
#X connect 1 0 3 0;
#X connect 2 0 4 0;
#X connect 3 0 5 0;
#X connect 4 0 5 1;
#X connect 5 0 7 0;
#X connect 5 1 8 0;
#X connect 6 0 0 0;
#X restore 443 318 pd minhaDeCa;
#N canvas 0 22 890 779 minhaDeCa 0;
#X obj 62 100 unpack;
#X obj 60 136 ftom;
#X obj 104 152 * 127;
#X floatatom 60 195 5 0 0 0 - - -, f 5;
#X floatatom 99 196 5 0 0 0 - - -, f 5;
#X obj 53 229 makenote 127 100;
#X obj 60 63 inlet;
#X obj 62 258 outlet;
#X obj 125 262 outlet;
#X connect 0 0 1 0;
#X connect 0 1 2 0;
#X connect 1 0 3 0;
#X connect 2 0 4 0;
#X connect 3 0 5 0;
#X connect 4 0 5 1;
#X connect 5 0 7 0;
#X connect 5 1 8 0;
#X connect 6 0 0 0;
#X restore 534 318 pd minhaDeCa;
#N canvas 0 22 890 779 minhaDeCa 0;
#X obj 62 100 unpack;
#X obj 60 136 ftom;
#X obj 104 152 * 127;
#X floatatom 60 195 5 0 0 0 - - -, f 5;
#X floatatom 99 196 5 0 0 0 - - -, f 5;
#X obj 53 229 makenote 127 100;
#X obj 60 63 inlet;
#X obj 62 258 outlet;
#X obj 125 262 outlet;
#X connect 0 0 1 0;
#X connect 0 1 2 0;
#X connect 1 0 3 0;
#X connect 2 0 4 0;
#X connect 3 0 5 0;
#X connect 4 0 5 1;
#X connect 5 0 7 0;
#X connect 5 1 8 0;
#X connect 6 0 0 0;
#X restore 625 317 pd minhaDeCa;
#N canvas 0 22 890 779 minhaDeCa 0;
#X obj 62 100 unpack;
#X obj 60 136 ftom;
#X obj 104 152 * 127;
#X floatatom 60 195 5 0 0 0 - - -, f 5;
#X floatatom 99 196 5 0 0 0 - - -, f 5;
#X obj 53 229 makenote 127 100;
#X obj 60 63 inlet;
#X obj 62 258 outlet;
#X obj 125 262 outlet;
#X connect 0 0 1 0;
#X connect 0 1 2 0;
#X connect 1 0 3 0;
#X connect 2 0 4 0;
#X connect 3 0 5 0;
#X connect 4 0 5 1;
#X connect 5 0 7 0;
#X connect 5 1 8 0;
#X connect 6 0 0 0;
#X restore 717 316 pd minhaDeCa;
#X obj 142 276 noteout 2;
#X obj 233 275 noteout 3;
#X obj 324 274 noteout 4;
#X obj 417 276 noteout 5;
#X obj 509 275 noteout 6;
#X obj 600 275 noteout 7;
#X obj 691 274 noteout 8;
#X obj 76 353 noteout 9;
#X obj 168 352 noteout 10;
#X obj 259 351 noteout 11;
#X obj 350 351 noteout 12;
#X obj 443 353 noteout 13;
#X obj 535 352 noteout 14;
#X obj 626 351 noteout 15;
#X obj 717 351 noteout 16;
#X obj 32 129 *~;
#X obj 117 140 *~;
#X floatatom 110 117 5 0 0 0 - - -, f 5;
#X connect 0 0 9 0;
#X connect 0 0 43 0;
#X connect 1 0 44 0;
#X connect 2 0 0 0;
#X connect 2 1 1 0;
#X connect 3 0 4 0;
#X connect 4 0 6 0;
#X connect 5 0 3 0;
#X connect 6 0 2 0;
#X connect 7 0 1 1;
#X connect 7 0 0 1;
#X connect 9 4 10 0;
#X connect 10 0 12 0;
#X connect 10 1 13 0;
#X connect 10 2 14 0;
#X connect 10 3 15 0;
#X connect 10 4 16 0;
#X connect 10 5 17 0;
#X connect 10 6 18 0;
#X connect 10 7 19 0;
#X connect 10 8 20 0;
#X connect 10 9 21 0;
#X connect 10 10 22 0;
#X connect 10 11 23 0;
#X connect 10 12 24 0;
#X connect 10 13 25 0;
#X connect 10 14 26 0;
#X connect 10 15 27 0;
#X connect 12 0 11 0;
#X connect 12 1 11 1;
#X connect 13 0 28 0;
#X connect 13 1 28 1;
#X connect 14 0 29 0;
#X connect 14 1 29 1;
#X connect 15 0 30 0;
#X connect 15 1 30 1;
#X connect 16 0 31 0;
#X connect 16 1 31 1;
#X connect 17 0 32 0;
#X connect 17 1 32 1;
#X connect 18 0 33 0;
#X connect 18 1 33 1;
#X connect 19 0 34 0;
#X connect 19 1 34 1;
#X connect 20 0 35 0;
#X connect 20 1 35 1;
#X connect 21 0 36 0;
#X connect 21 1 36 1;
#X connect 22 0 37 0;
#X connect 22 1 37 1;
#X connect 23 0 38 0;
#X connect 23 1 38 1;
#X connect 24 0 39 0;
#X connect 24 1 39 1;
#X connect 25 0 40 0;
#X connect 25 1 40 1;
#X connect 26 0 41 0;
#X connect 26 1 41 1;
#X connect 27 0 42 0;
#X connect 27 1 42 1;
#X connect 43 0 8 0;
#X connect 44 0 8 1;
#X connect 45 0 44 1;
#X connect 45 0 43 1;
