#N canvas 84 371 319 363 10;
#X obj 59 127 *~;
#X obj 98 126 *~;
#X obj 58 101 readsf~ 2;
#X obj 57 39 openpanel;
#X symbolatom 58 60 10 0 0 0 - - -, f 10;
#X obj 57 29 bng 8 250 50 0 empty empty empty 17 7 0 10 -262144 -1
-1;
#X msg 58 79 open \$1 \, start;
#X floatatom 57 221 5 0 0 0 - - -, f 5;
#X obj 58 190 fiddle~ 1024 1 20 3;
#X floatatom 139 123 5 0 0 0 - - -, f 5;
#X obj 199 192 dac~ 1 2;
#X obj 54 311 noteout 1;
#X obj 56 280 makenote 127 100;
#X floatatom 106 252 5 0 0 0 - - -, f 5;
#X obj 185 159 *~;
#X obj 224 158 *~;
#X floatatom 265 155 5 0 0 0 - - -, f 5;
#X connect 0 0 8 0;
#X connect 0 0 14 0;
#X connect 1 0 15 0;
#X connect 2 0 0 0;
#X connect 2 1 1 0;
#X connect 3 0 4 0;
#X connect 4 0 6 0;
#X connect 5 0 3 0;
#X connect 6 0 2 0;
#X connect 7 0 12 0;
#X connect 8 0 7 0;
#X connect 9 0 1 1;
#X connect 9 0 0 1;
#X connect 12 0 11 0;
#X connect 12 1 11 1;
#X connect 13 0 12 1;
#X connect 14 0 10 0;
#X connect 15 0 10 1;
#X connect 16 0 15 1;
#X connect 16 0 14 1;
