#N canvas 138 89 1163 607 10;
#X obj 29 12 key;
#X obj 29 40 nbx 5 14 -1e+37 1e+37 0 0 empty empty empty 0 -8 0 10
-262144 -1 -1 0 256;
#X obj 26 108 bng 15 250 50 0 empty empty empty 17 7 0 10 -262144 -1
-1;
#X obj 167 106 bng 15 250 50 0 empty empty empty 17 7 0 10 -262144
-1 -1;
#X obj 28 69 select 119 97 115 100 102 103;
#X obj 53 109 bng 15 250 50 0 empty empty empty 17 7 0 10 -262144 -1
-1;
#X obj 84 110 bng 15 250 50 0 empty empty empty 17 7 0 10 -262144 -1
-1;
#X obj 135 108 bng 15 250 50 0 empty empty empty 17 7 0 10 -262144
-1 -1;
#X obj 193 106 bng 15 250 50 0 empty empty empty 17 7 0 10 -262144
-1 -1;
#X msg 24 138 60;
#X msg 67 138 62;
#X msg 105 137 64;
#X msg 136 133 66;
#X msg 168 133 67;
#X msg 206 134 69;
#X obj 24 215 noteout 1;
#X obj 23 187 makenote 90 300;
#X obj 560 24 adc~ 1 2 3;
#X obj 820 65 bonk~;
#X obj 813 101 bng 15 250 50 0 empty empty empty 17 7 0 10 -262144
-1 -1;
#X obj 848 100 unpack 0 f f;
#X floatatom 884 128 5 0 0 0 - - -, f 5;
#X obj 738 410 readsf~ 2;
#X obj 802 327 openpanel;
#X symbolatom 800 348 10 0 0 0 - - -, f 10;
#X obj 802 308 bng 15 250 50 0 empty empty empty 17 7 0 10 -262144
-1 -1;
#X obj 650 406 nbx 5 14 0 0.9 0 0 empty empty empty 0 -8 0 10 -262144
-1 -1 0.9 256;
#X obj 647 347 loadbang;
#X obj 878 465 *~;
#X obj 881 497 dac~;
#X obj 907 466 *~;
#X msg 821 37 thresh 1.5 100;
#X obj 884 155 > 400;
#X obj 883 182 sel 1;
#X floatatom 925 155 5 0 0 0 - - -, f 5;
#X msg 648 374 0.9;
#X obj 490 168 vu 15 120 empty empty -1 -8 0 10 -66577 -1 1 0;
#X obj 489 132 - 100;
#X obj 489 104 env~;
#X msg 800 369 open \$1;
#X msg 737 370 start;
#X obj 881 411 readsf~ 2;
#X obj 945 328 openpanel;
#X symbolatom 943 349 10 0 0 0 - - -, f 10;
#X obj 945 309 bng 15 250 50 0 empty empty empty 17 7 0 10 -262144
-1 -1;
#X msg 943 370 open \$1;
#X msg 880 371 start;
#X obj 1026 413 readsf~ 2;
#X obj 1090 330 openpanel;
#X symbolatom 1088 351 10 0 0 0 - - -, f 10;
#X obj 1090 311 bng 15 250 50 0 empty empty empty 17 7 0 10 -262144
-1 -1;
#X msg 1088 372 open \$1;
#X msg 1025 373 start;
#X obj 885 208 random 3;
#X obj 738 274 sel 0;
#X obj 882 269 sel 1;
#X obj 1025 272 sel 2;
#X floatatom 885 235 5 0 0 0 - - -, f 5;
#X obj 856 182 bng 15 250 50 0 empty empty empty 17 7 0 10 -262144
-1 -1;
#X connect 0 0 1 0;
#X connect 1 0 4 0;
#X connect 2 0 9 0;
#X connect 3 0 13 0;
#X connect 4 0 2 0;
#X connect 4 1 5 0;
#X connect 4 2 6 0;
#X connect 4 3 7 0;
#X connect 4 4 3 0;
#X connect 4 5 8 0;
#X connect 5 0 10 0;
#X connect 6 0 11 0;
#X connect 7 0 12 0;
#X connect 8 0 14 0;
#X connect 9 0 16 0;
#X connect 10 0 16 0;
#X connect 11 0 16 0;
#X connect 12 0 16 0;
#X connect 13 0 16 0;
#X connect 14 0 16 0;
#X connect 16 0 15 0;
#X connect 16 1 15 1;
#X connect 17 1 18 0;
#X connect 17 1 38 0;
#X connect 18 1 19 0;
#X connect 18 1 20 0;
#X connect 20 1 21 0;
#X connect 21 0 32 0;
#X connect 22 0 28 0;
#X connect 22 1 30 0;
#X connect 23 0 24 0;
#X connect 24 0 39 0;
#X connect 25 0 23 0;
#X connect 26 0 28 1;
#X connect 26 0 30 1;
#X connect 27 0 35 0;
#X connect 28 0 29 0;
#X connect 30 0 29 1;
#X connect 31 0 18 0;
#X connect 32 0 33 0;
#X connect 33 0 53 0;
#X connect 34 0 32 1;
#X connect 35 0 26 0;
#X connect 37 0 36 0;
#X connect 38 0 37 0;
#X connect 39 0 22 0;
#X connect 40 0 22 0;
#X connect 41 0 28 0;
#X connect 41 1 30 0;
#X connect 42 0 43 0;
#X connect 43 0 45 0;
#X connect 44 0 42 0;
#X connect 45 0 41 0;
#X connect 46 0 41 0;
#X connect 47 0 28 0;
#X connect 47 1 30 0;
#X connect 48 0 49 0;
#X connect 49 0 51 0;
#X connect 50 0 48 0;
#X connect 51 0 47 0;
#X connect 52 0 47 0;
#X connect 53 0 57 0;
#X connect 54 0 40 0;
#X connect 55 0 46 0;
#X connect 56 0 52 0;
#X connect 57 0 54 0;
#X connect 57 0 55 0;
#X connect 57 0 56 0;
#X connect 58 0 53 0;
