#N canvas 4 23 353 429 10;
#X obj 17 51 metro 500;
#X obj 17 20 tgl 15 0 empty empty empty 17 7 0 10 -262144 -1 -1 0 1
;
#X obj 20 163 random 5;
#X obj 106 120 nbx 5 14 -1e+37 1e+37 0 0 empty empty empty 0 -8 0 10
-262144 -1 -1 0 256;
#X obj 15 213 select 0 1 2 3 4;
#X obj 15 245 bng 15 250 50 0 empty empty empty 17 7 0 10 -262144 -1
-1;
#X obj 50 244 bng 15 250 50 0 empty empty empty 17 7 0 10 -262144 -1
-1;
#X obj 81 249 bng 15 250 50 0 empty empty empty 17 7 0 10 -262144 -1
-1;
#X obj 116 248 bng 15 250 50 0 empty empty empty 17 7 0 10 -262144
-1 -1;
#X obj 154 252 bng 15 250 50 0 empty empty empty 17 7 0 10 -262144
-1 -1;
#X obj 67 192 nbx 5 14 -1e+37 1e+37 0 0 empty empty empty 0 -8 0 10
-262144 -1 -1 0 256;
#X msg 13 279 60;
#X msg 55 277 62, f 5;
#X msg 109 277 64, f 5;
#X msg 165 276 65, f 5;
#X msg 228 279 67, f 5;
#X obj 13 322 makenote 120 300;
#X obj 14 350 noteout 1;
#X obj 105 87 line, f 9;
#X msg 107 52 166;
#X floatatom 54 17 5 0 0 0 - - -, f 5;
#X msg 140 50 5 10000;
#X obj 30 72 bng 15 250 50 0 empty empty empty 17 7 0 10 -262144 -1
-1;
#X connect 0 0 2 0;
#X connect 0 0 22 0;
#X connect 1 0 0 0;
#X connect 2 0 4 0;
#X connect 2 0 10 0;
#X connect 3 0 2 1;
#X connect 4 0 5 0;
#X connect 4 1 6 0;
#X connect 4 2 7 0;
#X connect 4 3 8 0;
#X connect 4 4 9 0;
#X connect 5 0 11 0;
#X connect 6 0 12 0;
#X connect 7 0 13 0;
#X connect 8 0 14 0;
#X connect 9 0 15 0;
#X connect 11 0 16 0;
#X connect 12 0 16 0;
#X connect 13 0 16 0;
#X connect 14 0 16 0;
#X connect 15 0 16 0;
#X connect 16 0 17 0;
#X connect 16 1 17 1;
#X connect 18 0 3 0;
#X connect 19 0 18 0;
#X connect 20 0 0 1;
#X connect 21 0 18 0;
