#N canvas 134 47 701 624 10;
#X obj 54 27 ctlin 14;
#X floatatom 55 63 5 0 0 0 - - -, f 5;
#X obj 57 476 *~;
#X obj 86 371 ctlin 2;
#X obj 84 398 / 127;
#X obj 57 558 dac~ 1 2;
#X obj 140 90 soundfiler;
#X obj 143 29 table som;
#X msg 140 58 read -resize anton.aif som;
#X obj 58 256 line~;
#X obj 140 122 print;
#X obj 192 124 / 44.1;
#X floatatom 192 155 5 0 0 0 - - -, f 5;
#X obj 60 283 tabread4~ som;
#X msg 57 226 0 \, \$1 1000;
#X obj 56 197 * 44100;
#X floatatom 100 453 5 0 0 0 - - -, f 5;
#X floatatom 366 60 5 0 0 0 - - -, f 5;
#X obj 451 87 soundfiler;
#X obj 369 253 line~;
#X obj 451 119 print;
#X obj 503 121 / 44.1;
#X floatatom 503 152 5 0 0 0 - - -, f 5;
#X msg 368 223 0 \, \$1 1000;
#X obj 365 24 ctlin 15;
#X obj 450 25 table som1;
#X obj 371 280 tabread4~ som1;
#X obj 364 468 *~;
#X obj 391 390 / 127;
#X floatatom 407 445 5 0 0 0 - - -, f 5;
#X obj 393 363 ctlin 3;
#X msg 451 55 read -resize 4.aiff som1;
#X text 477 280 AQUI;
#X text 606 57 AQUI;
#X text 526 26 AQUI;
#X text 386 8 AQUI;
#X text 442 365 AQUI;
#X obj 367 153 * 100;
#X obj 83 424 * 0.5;
#X obj 390 416 * 0.5;
#X obj 369 185 + 50000;
#X connect 0 0 1 0;
#X connect 1 0 15 0;
#X connect 2 0 5 0;
#X connect 2 0 5 1;
#X connect 3 0 4 0;
#X connect 4 0 38 0;
#X connect 6 0 10 0;
#X connect 6 0 11 0;
#X connect 8 0 6 0;
#X connect 9 0 13 0;
#X connect 11 0 12 0;
#X connect 13 0 2 0;
#X connect 14 0 9 0;
#X connect 15 0 14 0;
#X connect 17 0 37 0;
#X connect 18 0 20 0;
#X connect 18 0 21 0;
#X connect 19 0 26 0;
#X connect 21 0 22 0;
#X connect 23 0 19 0;
#X connect 24 0 17 0;
#X connect 26 0 27 0;
#X connect 27 0 5 0;
#X connect 27 0 5 1;
#X connect 28 0 39 0;
#X connect 30 0 28 0;
#X connect 31 0 18 0;
#X connect 37 0 40 0;
#X connect 38 0 2 1;
#X connect 38 0 16 0;
#X connect 39 0 27 1;
#X connect 39 0 29 0;
#X connect 40 0 23 0;
